<svg width="83" height="24" viewBox="0 0 83 24" fill="none" xmlns="http://www.w3.org/2000/svg">
<path d="M8.9375 13.0156H3.09375L3.0625 9.79688H7.96875C8.83333 9.79688 9.54167 9.6875 10.0938 9.46875C10.6458 9.23958 11.0573 8.91146 11.3281 8.48438C11.6094 8.04688 11.75 7.51562 11.75 6.89062C11.75 6.18229 11.6146 5.60938 11.3438 5.17188C11.0833 4.73438 10.6719 4.41667 10.1094 4.21875C9.55729 4.02083 8.84375 3.92188 7.96875 3.92188H4.71875V23H0.03125V0.25H7.96875C9.29167 0.25 10.474 0.375 11.5156 0.625C12.5677 0.875 13.4583 1.25521 14.1875 1.76562C14.9167 2.27604 15.474 2.92188 15.8594 3.70312C16.2448 4.47396 16.4375 5.39062 16.4375 6.45312C16.4375 7.39062 16.224 8.25521 15.7969 9.04688C15.3802 9.83854 14.7188 10.4844 13.8125 10.9844C12.9167 11.4844 11.7448 11.7604 10.2969 11.8125L8.9375 13.0156ZM8.73438 23H1.8125L3.64062 19.3438H8.73438C9.55729 19.3438 10.2292 19.2135 10.75 18.9531C11.2708 18.6823 11.6562 18.3177 11.9062 17.8594C12.1562 17.401 12.2812 16.875 12.2812 16.2812C12.2812 15.6146 12.1667 15.0365 11.9375 14.5469C11.7188 14.0573 11.3646 13.6823 10.875 13.4219C10.3854 13.151 9.73958 13.0156 8.9375 13.0156H4.42188L4.45312 9.79688H10.0781L11.1562 11.0625C12.5417 11.0417 13.6562 11.2865 14.5 11.7969C15.3542 12.2969 15.974 12.9479 16.3594 13.75C16.7552 14.5521 16.9531 15.4115 16.9531 16.3281C16.9531 17.7865 16.6354 19.0156 16 20.0156C15.3646 21.0052 14.4323 21.75 13.2031 22.25C11.9844 22.75 10.4948 23 8.73438 23ZM29.6719 16.0156V0.25H34.3438V16.0156C34.3438 17.5365 34.0104 18.8438 33.3438 19.9375C32.6771 21.0208 31.7656 21.8542 30.6094 22.4375C29.4635 23.0208 28.1719 23.3125 26.7344 23.3125C25.2448 23.3125 23.9271 23.0625 22.7812 22.5625C21.6354 22.0625 20.7344 21.2969 20.0781 20.2656C19.4219 19.224 19.0938 17.9062 19.0938 16.3125H23.7969C23.7969 17.1458 23.9115 17.8073 24.1406 18.2969C24.3802 18.7865 24.7188 19.1354 25.1562 19.3438C25.5938 19.5521 26.1198 19.6562 26.7344 19.6562C27.3281 19.6562 27.8438 19.5156 28.2812 19.2344C28.7188 18.9531 29.0573 18.5417 29.2969 18C29.5469 17.4583 29.6719 16.7969 29.6719 16.0156ZM48.5156 0.25V23H43.8438V0.25H48.5156ZM55.5156 0.25V3.92188H36.9531V0.25H55.5156ZM60.3281 0.25H64.2969L70.1406 16.9531L75.9844 0.25H79.9531L71.7344 23H68.5469L60.3281 0.25ZM58.1875 0.25H62.1406L62.8594 16.5312V23H58.1875V0.25ZM78.1406 0.25H82.1094V23H77.4219V16.5312L78.1406 0.25Z" fill="white"/>
</svg>
